<svg xmlns="http://www.w3.org/2000/svg" width="798.084" height="189.184" viewBox="0 0 798.084 189.184">
  <g id="Group_3" data-name="Group 3" transform="translate(-61.3 -446.2)">
    <path id="Path_7" data-name="Path 7" d="M8.064-33.456V0H3.7V-33.456ZM28.32-26.784a10.66,10.66,0,0,1,7.776,2.9q2.976,2.9,2.976,8.376V0h-4.32V-14.88A8.458,8.458,0,0,0,32.784-20.9a7.032,7.032,0,0,0-5.376-2.088,7.2,7.2,0,0,0-5.5,2.16q-2.04,2.16-2.04,6.288V0H15.5V-26.3h4.368v3.744A8.672,8.672,0,0,1,23.4-25.68,10.943,10.943,0,0,1,28.32-26.784Zm27.7,22.752L64.176-26.3h4.656L58.512,0H53.424L43.1-26.3h4.7ZM97.152-14.16a25.706,25.706,0,0,1-.144,2.64H75.984a8.5,8.5,0,0,0,2.664,6.072,8.473,8.473,0,0,0,5.88,2.184,8.077,8.077,0,0,0,4.728-1.32A6.988,6.988,0,0,0,91.92-8.112h4.7A11.308,11.308,0,0,1,92.4-1.944,12.749,12.749,0,0,1,84.528.432a13.3,13.3,0,0,1-6.7-1.68A11.892,11.892,0,0,1,73.2-6.024,14.812,14.812,0,0,1,71.52-13.2a15.023,15.023,0,0,1,1.632-7.152,11.457,11.457,0,0,1,4.584-4.728,13.645,13.645,0,0,1,6.792-1.656A13.2,13.2,0,0,1,91.152-25.1a11.3,11.3,0,0,1,4.44,4.488A13.245,13.245,0,0,1,97.152-14.16Zm-4.512-.912a8.057,8.057,0,0,0-1.1-4.3,7.179,7.179,0,0,0-3-2.736,9.357,9.357,0,0,0-4.2-.936,8.1,8.1,0,0,0-5.64,2.112,8.605,8.605,0,0,0-2.664,5.856Zm23.088-11.712a10.661,10.661,0,0,1,7.776,2.9q2.976,2.9,2.976,8.376V0h-4.32V-14.88a8.458,8.458,0,0,0-1.968-6.024,7.032,7.032,0,0,0-5.376-2.088,7.2,7.2,0,0,0-5.5,2.16q-2.04,2.16-2.04,6.288V0h-4.368V-26.3h4.368v3.744a8.672,8.672,0,0,1,3.528-3.12A10.943,10.943,0,0,1,115.728-26.784ZM138.96-22.7V-7.2a3.688,3.688,0,0,0,.816,2.712,4.022,4.022,0,0,0,2.832.792h3.216V0h-3.936a7.833,7.833,0,0,1-5.472-1.68q-1.824-1.68-1.824-5.52V-22.7h-3.408v-3.6h3.408v-6.624h4.368V-26.3h6.864v3.6ZM162.576.432a13.467,13.467,0,0,1-6.7-1.68,11.96,11.96,0,0,1-4.7-4.776,14.643,14.643,0,0,1-1.7-7.176,14.221,14.221,0,0,1,1.752-7.128A12.072,12.072,0,0,1,156-25.08a13.856,13.856,0,0,1,6.768-1.656,13.856,13.856,0,0,1,6.768,1.656,12.115,12.115,0,0,1,4.776,4.728,14.186,14.186,0,0,1,1.752,7.152,14.017,14.017,0,0,1-1.8,7.176,12.476,12.476,0,0,1-4.872,4.776A13.97,13.97,0,0,1,162.576.432Zm0-3.84a9.223,9.223,0,0,0,4.416-1.1,8.4,8.4,0,0,0,3.336-3.312A10.608,10.608,0,0,0,171.6-13.2a10.773,10.773,0,0,0-1.248-5.376,8.172,8.172,0,0,0-3.264-3.288,9.106,9.106,0,0,0-4.368-1.08,9.065,9.065,0,0,0-4.392,1.08,7.918,7.918,0,0,0-3.192,3.288,11.123,11.123,0,0,0-1.2,5.376,11.423,11.423,0,0,0,1.176,5.424,7.817,7.817,0,0,0,3.144,3.288A8.831,8.831,0,0,0,162.576-3.408Zm23.616-18.624a8.379,8.379,0,0,1,3.288-3.5,10.163,10.163,0,0,1,5.208-1.248v4.512h-1.152q-7.344,0-7.344,7.968V0h-4.368V-26.3h4.368ZM222.384-26.3l-15.84,38.688h-4.512L207.216-.288,196.608-26.3h4.848l8.256,21.312,8.16-21.312Z" transform="translate(637 623)" fill="#fff"/>
    <path id="Path_6" data-name="Path 6" d="M47.4,1.05A54.166,54.166,0,0,1,26.7-2.7,33.741,33.741,0,0,1,12.075-13.8,30.326,30.326,0,0,1,6.3-31.5H33.6q.6,5.85,4.05,8.925a13.019,13.019,0,0,0,9,3.075q5.7,0,9-2.625a8.779,8.779,0,0,0,3.3-7.275,8.611,8.611,0,0,0-2.625-6.45,21.176,21.176,0,0,0-6.45-4.2A103.752,103.752,0,0,0,39-43.8a118.41,118.41,0,0,1-16.65-6.3,30.764,30.764,0,0,1-11.1-9.3Q6.6-65.55,6.6-75.45q0-14.7,10.65-23.025T45-106.8q17.4,0,28.05,8.325T84.45-75.3H56.7a10.853,10.853,0,0,0-3.75-8.025A13.211,13.211,0,0,0,44.1-86.25a11.031,11.031,0,0,0-7.5,2.475Q33.75-81.3,33.75-76.65q0,5.1,4.8,7.95t15,6.15a138.723,138.723,0,0,1,16.575,6.6A31.554,31.554,0,0,1,81.15-46.8q4.65,6,4.65,15.45A30.318,30.318,0,0,1,81.225-15,32.042,32.042,0,0,1,67.95-3.3Q59.25,1.05,47.4,1.05Zm79.8-72.9a27.845,27.845,0,0,1,10.35-9.45A31.773,31.773,0,0,1,153-84.9a34.657,34.657,0,0,1,18.75,5.25,36.363,36.363,0,0,1,13.275,15Q189.9-54.9,189.9-42a50.5,50.5,0,0,1-4.875,22.725A36.8,36.8,0,0,1,171.75-4.125,34.293,34.293,0,0,1,153,1.2a31.885,31.885,0,0,1-15.375-3.6A28.187,28.187,0,0,1,127.2-11.7V39.9H101.55V-83.7H127.2ZM163.8-42q0-9.6-5.325-15.075A17.587,17.587,0,0,0,145.35-62.55,17.3,17.3,0,0,0,132.375-57q-5.325,5.55-5.325,15.15t5.325,15.15a17.3,17.3,0,0,0,12.975,5.55,17.429,17.429,0,0,0,13.05-5.625Q163.8-32.4,163.8-42Zm34.5,0q0-12.9,4.875-22.65a36.363,36.363,0,0,1,13.275-15A34.657,34.657,0,0,1,235.2-84.9a32.21,32.21,0,0,1,15.525,3.6A26.519,26.519,0,0,1,261-71.85V-83.7h25.65V0H261V-11.85A27.7,27.7,0,0,1,250.575-2.4,32.21,32.21,0,0,1,235.05,1.2a34.033,34.033,0,0,1-18.6-5.325,36.8,36.8,0,0,1-13.275-15.15A50.5,50.5,0,0,1,198.3-42Zm62.7.15q0-9.6-5.325-15.15A17.3,17.3,0,0,0,242.7-62.55a17.415,17.415,0,0,0-12.975,5.475Q224.4-51.6,224.4-42t5.325,15.225A17.192,17.192,0,0,0,242.7-21.15a17.3,17.3,0,0,0,12.975-5.55Q261-32.25,261-41.85Zm69.9-27.9a33.837,33.837,0,0,1,11.25-10.875,29.009,29.009,0,0,1,15-3.975v27.15H350.1q-9.6,0-14.4,4.125T330.9-38.85V0H305.25V-83.7H330.9ZM448.35-43.2a65.475,65.475,0,0,1-.45,7.5H389.85q.6,7.8,5.025,11.925A15.352,15.352,0,0,0,405.75-19.65q9.6,0,13.35-8.1h27.3a37.462,37.462,0,0,1-7.575,14.85A37.925,37.925,0,0,1,425.1-2.55,44.085,44.085,0,0,1,406.65,1.2a44.894,44.894,0,0,1-21.9-5.25,37.343,37.343,0,0,1-15-15q-5.4-9.75-5.4-22.8t5.325-22.8a36.859,36.859,0,0,1,14.925-15,45.211,45.211,0,0,1,22.05-5.25,44.758,44.758,0,0,1,21.6,5.1,36.62,36.62,0,0,1,14.775,14.55Q448.35-55.8,448.35-43.2ZM422.1-49.95a13.188,13.188,0,0,0-4.5-10.5,16.565,16.565,0,0,0-11.25-3.9,16.246,16.246,0,0,0-10.875,3.75Q391.05-56.85,390-49.95ZM573.9-71.4a33.909,33.909,0,0,1-4.2,16.725A30.88,30.88,0,0,1,556.8-42.45q-8.7,4.65-21.6,4.65H519.3V0H493.65V-105.3H535.2q12.6,0,21.3,4.35a29.9,29.9,0,0,1,13.05,12A34.878,34.878,0,0,1,573.9-71.4ZM533.25-58.2q7.35,0,10.95-3.45t3.6-9.75q0-6.3-3.6-9.75T533.25-84.6H519.3v26.4ZM582.15-42q0-12.9,4.875-22.65a36.363,36.363,0,0,1,13.275-15,34.657,34.657,0,0,1,18.75-5.25,32.21,32.21,0,0,1,15.525,3.6,26.519,26.519,0,0,1,10.275,9.45V-83.7H670.5V0H644.85V-11.85A27.7,27.7,0,0,1,634.425-2.4,32.21,32.21,0,0,1,618.9,1.2a34.034,34.034,0,0,1-18.6-5.325,36.8,36.8,0,0,1-13.275-15.15A50.5,50.5,0,0,1,582.15-42Zm62.7.15q0-9.6-5.325-15.15a17.3,17.3,0,0,0-12.975-5.55,17.415,17.415,0,0,0-12.975,5.475Q608.25-51.6,608.25-42t5.325,15.225A17.192,17.192,0,0,0,626.55-21.15a17.3,17.3,0,0,0,12.975-5.55Q644.85-32.25,644.85-41.85Zm69.9-27.9A33.837,33.837,0,0,1,726-80.625,29.009,29.009,0,0,1,741-84.6v27.15h-7.05q-9.6,0-14.4,4.125t-4.8,14.475V0H689.1V-83.7h25.65Zm85.2,48V0H786.9q-13.95,0-21.75-6.825T757.35-29.1V-62.4h-10.2V-83.7h10.2v-20.4H783v20.4h16.8v21.3H783v33.6q0,3.75,1.8,5.4t6,1.65Z" transform="translate(55 553)" fill="#fff"/>
  </g>
</svg>
